<svg xmlns="http://www.w3.org/2000/svg" viewBox="0 0 40 40" fill="none">
  <path d="M38.5 18.4c-.1-.6-.3-1.1-.6-1.6-.3-.5-.7-.9-1.2-1.2-.5-.3-1-.5-1.6-.6L20 13 4.9 14.9c-.6.1-1.1.3-1.6.6-.5.3-.9.7-1.2 1.2-.3.5-.5 1-.6 1.6L1.5 20l.1 1.6c.1.6.3 1.1.6 1.6.3.5.7.9 1.2 1.2.5.3 1 .5 1.6.6L20 27l15.1-1.9c.6-.1 1.1-.3 1.6-.6.5-.3.9-.7 1.2-1.2.3-.5.5-1 .6-1.6l.1-1.6-.1-1.6z" fill="#F05032"/>
  <path d="M20 13v14l12.5-1.6c.4-.1.8-.2 1.1-.5.3-.3.5-.7.6-1.1L35 20l-.8-4.8c-.1-.4-.3-.8-.6-1.1-.3-.3-.7-.4-1.1-.5L20 13z" fill="#fff" opacity="0.3"/>
</svg>
