<svg xmlns="http://www.w3.org/2000/svg" viewBox="0 0 40 40" fill="none">
  <path fill-rule="evenodd" clip-rule="evenodd" d="M20 4C11.16 4 4 11.16 4 20c0 7.08 4.58 13.08 10.94 15.2.8.15 1.1-.35 1.1-.78 0-.38-.01-1.38-.02-2.7-4.45.97-5.39-2.15-5.39-2.15-.73-1.85-1.78-2.34-1.78-2.34-1.45-.99 0-.97 0-.97 1.6.11 2.44 1.64 2.44 1.64 1.42 2.44 3.73 1.73 4.64 1.32.14-1.03.56-1.73 1.02-2.13-3.55-.4-7.28-1.78-7.28-7.92 0-1.75.63-3.18 1.66-4.3-.17-.4-.72-2.02.16-4.2 0 0 1.35-.43 4.43 1.64 1.28-.35 2.66-.53 4.03-.54 1.37.01 2.75.19 4.03.54 3.08-2.07 4.43-1.64 4.43-1.64.88 2.18.33 3.8.16 4.2 1.03 1.12 1.66 2.55 1.66 4.3 0 6.15-3.74 7.51-7.3 7.9.57.49 1.08 1.46 1.08 2.94 0 2.13-.02 3.84-.02 4.36 0 .43.29.94 1.1.78A16.01 16.01 0 0036 20c0-8.84-7.16-16-16-16z" fill="#fff"/>
</svg>
