<svg xmlns="http://www.w3.org/2000/svg" viewBox="0 0 40 40" fill="none">
  <path d="M6 4h28l-2 28H8L6 4z" fill="#E44D26"/>
  <path d="M20 33l10-2.8 1.1-12.2H20v14z" fill="#F16529"/>
  <path d="M20 16.5h11.2l-.3-3.5L29 8H20v8.5z" fill="#EBEBEB"/>
  <path d="M20 8H10.8l.7 8.5H20V8z" fill="#fff"/>
  <path d="M20 24.5V16.5H30.9l-.4 4.5-.5 3.5H20z" fill="#EBEBEB"/>
  <path d="M20 33V24.5H10.1L10.5 28 11 33l9-.5z" fill="#fff"/>
  <path d="M14.5 12.5h11v2.5h-5.5L20 18h5.5l-.5 6-5 1.5v-2l3-.7.2-2.3H20v-2.5h-5.5v-2.5z" fill="#E44D26"/>
</svg>
